HIERARCHY
ROOT Hips
{
	OFFSET -3.958830 18.904000 13.208200
	CHANNELS 6 Xposition Yposition Zposition Zrotation Yrotation Xrotation 
	JOINT LHipJoint
	{
		OFFSET 0.000000 0.000000 0.000000
		CHANNELS 3 Zrotation Yrotation Xrotation
		JOINT LeftUpLeg
		{
			OFFSET 1.800000 -1.400000 0.085000
			CHANNELS 3 Zrotation Yrotation Xrotation
			JOINT LeftLeg
			{
				OFFSET 2.215000 -6.000000 0.000000
				CHANNELS 3 Zrotation Yrotation Xrotation
				JOINT LeftFoot
				{
					OFFSET 2.500000 -6.900000 0.000000
					CHANNELS 3 Zrotation Yrotation Xrotation
					JOINT LeftToeBase
					{
						OFFSET 0.200000 -0.500000 1.950000
						CHANNELS 3 Zrotation Yrotation Xrotation
						End Site
						{
							OFFSET 0.000000 0.000000 0.000000
						}
					}
				}
			}
		}
	}
	JOINT RHipJoint
	{
		OFFSET 0.000000 0.000000 0.000000
		CHANNELS 3 Zrotation Yrotation Xrotation
		JOINT RightUpLeg
		{
			OFFSET -1.800000 -1.400000 0.085000
			CHANNELS 3 Zrotation Yrotation Xrotation
			JOINT RightLeg
			{
				OFFSET -2.215000 -6.000000 0.000000
				CHANNELS 3 Zrotation Yrotation Xrotation
				JOINT RightFoot
				{
					OFFSET -2.500000 -6.900000 0.000000
					CHANNELS 3 Zrotation Yrotation Xrotation
					JOINT RightToeBase
					{
						OFFSET -0.200000 -0.500000 1.950000
						CHANNELS 3 Zrotation Yrotation Xrotation
						End Site
						{
							OFFSET 0.000000 0.000000 0.000000
						}
					}
				}
			}
		}
	}
	JOINT LowerBack
	{
		OFFSET 0.000000 0.000000 0.000000
		CHANNELS 3 Zrotation Yrotation Xrotation
		JOINT Spine
		{
			OFFSET -0.087000 1.940000 -0.288900
			CHANNELS 3 Zrotation Yrotation Xrotation
			JOINT Spine1
			{
				OFFSET 0.000000 1.950000 0.060000
				CHANNELS 3 Zrotation Yrotation Xrotation
				JOINT Neck
				{
					OFFSET 0.000000 0.000000 0.000000
					CHANNELS 3 Zrotation Yrotation Xrotation
					JOINT Neck1
					{
						OFFSET 0.000000 1.600000 0.340000
						CHANNELS 3 Zrotation Yrotation Xrotation
						JOINT Head
						{
							OFFSET 0.000000 1.667000 -0.240000
							CHANNELS 3 Zrotation Yrotation Xrotation
							End Site
							{
								OFFSET 0.000000 0.000000 0.000000
							}
						}
					}
				}
				JOINT LeftShoulder
				{
					OFFSET 0.000000 0.000000 0.000000
					CHANNELS 3 Zrotation Yrotation Xrotation
					JOINT LeftArm
					{
						OFFSET 2.700000 1.550000 -0.730000
						CHANNELS 3 Zrotation Yrotation Xrotation
						JOINT LeftForeArm
						{
							OFFSET 5.450000 0.000000 0.000000
							CHANNELS 3 Zrotation Yrotation Xrotation
							JOINT LeftHand
							{
								OFFSET 3.450000 0.000000 0.000000
								CHANNELS 3 Zrotation Yrotation Xrotation
								JOINT LeftHandIndex1
								{
									OFFSET 0.750000 0.000000 0.000000
									CHANNELS 3 Zrotation Yrotation Xrotation
									End Site
									{
										OFFSET 0.000000 0.000000 0.000000
									}
								}
							}
						}
					}
				}
				JOINT RightShoulder
				{
					OFFSET 0.000000 0.000000 0.000000
					CHANNELS 3 Zrotation Yrotation Xrotation
					JOINT RightArm
					{
						OFFSET -2.700000 1.550000 -0.730000
						CHANNELS 3 Zrotation Yrotation Xrotation
						JOINT RightForeArm
						{
							OFFSET -5.450000 0.000000 0.000000
							CHANNELS 3 Zrotation Yrotation Xrotation
							JOINT RightHand
							{
								OFFSET -3.450000 0.000000 0.000000
								CHANNELS 3 Zrotation Yrotation Xrotation
								JOINT RightHandIndex1
								{
									OFFSET -0.750000 0.000000 0.000000
									CHANNELS 3 Zrotation Yrotation Xrotation
									End Site
									{
										OFFSET 0.000000 0.000000 0.000000
									}
								}
							}
						}
					}
				}
			}
		}
	}
}
MOTION
Frames: 6
Frame Time: 0.016667
0.397850 16.773200 -1.363380 -2.790165 -3.230994 2.102625 -14.957725 13.125634 3.214700 -0.641885 -0.537129 -5.154468 -5.888400 4.016031 5.111979 -0.467522 3.811500 3.543683 0.940110 0.357610 0.491550 18.423072 -11.091957 2.933007 -3.174352 0.680988 -8.568932 10.290010 -6.048171 11.240901 -0.802957 -3.874212 3.176379 0.062750 0.202770 0.761040 -4.065997 -1.078200 -7.723124 11.345235 -0.063479 7.413852 -5.186971 0.727289 7.700034 3.338782 -3.453127 -12.792883 -8.226327 5.276768 41.227682 -0.379170 2.087460 -14.986100 -34.796890 -20.656764 7.941888 -45.730335 -4.168655 -3.795609 -13.850972 -22.966481 -0.346725 -3.403962 3.404447 0.925230 0.073160 0.258520 0.532420 28.242718 25.343340 9.749668 50.750142 11.129920 -2.202978 10.599358 16.806827 0.575734 1.828237 -1.616266 0.101680 -0.025280 -0.210280 -0.225480 
0.399610 16.773350 -1.363560 -2.786428 -3.254698 2.098204 -14.954859 13.127557 3.217697 -0.723053 -0.534644 -5.146626 -5.782137 3.990109 5.106434 -0.457606 3.786239 3.548889 0.949680 0.373770 0.492950 18.424114 -11.094508 2.935135 -3.241470 0.682836 -8.591025 10.375141 -6.064676 11.254954 -0.809181 -3.877633 3.175172 0.065860 0.194600 0.763450 -4.071585 -1.077528 -7.729493 11.373767 -0.078479 7.458733 -5.259717 0.730968 7.669866 3.344037 -3.458480 -12.829097 -8.248654 5.296631 41.287050 -0.239810 2.081430 -15.115730 -34.824123 -20.683459 7.968215 -45.724828 -4.120292 -3.833683 -13.787612 -22.975356 -0.349283 -3.391589 3.415506 0.922440 0.067350 0.267600 0.538500 28.249197 25.384204 9.768595 50.826481 11.113514 -2.228441 10.560672 16.853226 0.567726 1.833021 -1.622140 0.112670 -0.031960 -0.220410 -0.219260 
0.401160 16.771250 -1.360390 -2.918888 -3.162438 2.122318 -14.942958 13.123315 3.205105 -0.673255 -0.532919 -5.166592 -5.648290 3.966305 5.117975 -0.449922 3.762946 3.554826 0.953400 0.386380 0.489610 18.438024 -11.094916 2.941207 -3.156823 0.672846 -8.543849 10.455575 -6.073633 11.209105 -0.813553 -3.881898 3.176581 0.068590 0.191730 0.761470 -4.110770 -1.065015 -7.717004 11.670389 -0.161174 7.407624 -5.426545 0.658643 7.636772 3.342366 -3.548955 -12.770102 -8.396878 5.371189 41.110271 -0.098210 2.086340 -15.280580 -34.825654 -20.568587 7.928486 -45.803283 -4.126077 -3.822575 -13.711695 -22.884544 -0.354792 -3.387637 3.419538 0.915130 0.064590 0.271080 0.541840 28.214751 25.288761 9.728354 50.977200 11.125077 -2.242310 10.527158 16.900311 0.557368 1.837684 -1.623625 0.120720 -0.032840 -0.225350 -0.212490 
0.399730 16.769020 -1.355020 -2.917046 -3.013724 2.149052 -14.949930 13.125268 3.198907 -0.680721 -0.529207 -5.156201 -5.564442 3.949611 5.089843 -0.460694 3.759408 3.553177 0.953820 0.386070 0.487940 18.434923 -11.081140 2.940110 -3.169564 0.650301 -8.438297 10.531059 -6.080795 11.062299 -0.813856 -3.887389 3.181064 0.069830 0.190480 0.758540 -4.099041 -1.091524 -7.705374 11.604558 -0.201262 7.356489 -5.381813 0.595360 7.508247 3.313846 -3.616684 -12.628070 -8.507013 5.452753 40.880550 -0.040330 2.151900 -15.639260 -34.683043 -20.270507 7.793983 -46.051831 -4.224438 -3.735454 -13.621823 -22.724986 -0.377397 -3.393780 3.410092 0.921590 0.064230 0.268270 0.538650 28.132067 24.985337 9.617942 51.187654 11.099047 -2.293764 10.643446 17.052278 0.568412 1.830666 -1.617866 0.116820 -0.030570 -0.221040 -0.217750 
0.398980 16.767530 -1.350190 -2.961993 -2.896934 2.162867 -14.952937 13.127557 3.192517 -0.661226 -0.519243 -5.130049 -5.482434 3.934190 5.044689 -0.473062 3.749870 3.546699 0.951430 0.389500 0.487180 18.435445 -11.067566 2.940963 -3.158866 0.632450 -8.331771 10.644460 -6.101750 10.953765 -0.819235 -3.887429 3.178259 0.069280 0.182640 0.753410 -4.097745 -1.115955 -7.693247 11.652987 -0.271966 7.420756 -5.397264 0.519642 7.248083 3.292538 -3.796102 -12.359227 -8.798218 5.630902 40.582762 0.057210 2.293580 -16.627820 -34.576241 -19.663026 7.516519 -46.279956 -4.358978 -3.657636 -13.685354 -22.666608 -0.365580 -3.397792 3.396799 0.933290 0.054380 0.272520 0.526000 28.053529 24.453011 9.395353 51.394498 11.191813 -2.275898 10.845079 17.102093 0.603674 1.832019 -1.599008 0.115300 -0.025450 -0.210210 -0.222380 
0.398400 16.764750 -1.343250 -3.025035 -2.880133 2.190753 -14.946577 13.111275 3.185054 -0.647702 -0.508823 -5.012028 -5.400113 3.913148 4.878322 -0.480100 3.765581 3.557403 0.939810 0.367590 0.494850 18.447531 -11.062685 2.943110 -3.136484 0.603049 -8.187883 10.678228 -6.085112 10.712751 -0.817209 -3.882543 3.189867 0.060290 0.197960 0.742330 -4.125652 -1.095102 -7.677093 11.853199 -0.288824 7.278167 -5.526146 0.497578 7.202277 3.307125 -3.882031 -12.247376 -8.928580 5.694400 40.473397 -0.028580 2.336560 -16.718140 -34.595695 -19.400025 7.419231 -46.282015 -4.301543 -3.655480 -13.757518 -22.738613 -0.354412 -3.412576 3.363151 0.939350 0.059800 0.261220 0.518360 28.017377 24.220819 9.342492 51.549462 11.115717 -2.348550 10.979801 17.286407 0.619650 1.825922 -1.579453 0.098920 -0.001840 -0.201160 -0.231030 
